<?xml version="1.0" standalone="no"?>
<!DOCTYPE svg PUBLIC "-//W3C//DTD SVG 20010904//EN"
 "http://www.w3.org/TR/2001/REC-SVG-20010904/DTD/svg10.dtd">
<svg version="1.0" xmlns="http://www.w3.org/2000/svg"
 width="300.000000pt" height="300.000000pt" viewBox="0 0 300.000000 300.000000"
 preserveAspectRatio="xMidYMid meet">
<metadata>
Created by potrace 1.10, written by Peter Selinger 2001-2011
</metadata>
<g transform="translate(0.000000,300.000000) scale(0.100000,-0.100000)"
fill="#000000" stroke="white" stroke-width="30">
<path d="M1478 2696 c-87 -13 -160 -25 -163 -27 -4 -5 -182 -827 -396 -1828
-44 -206 -82 -385 -85 -398 l-6 -23 166 0 c91 0 166 3 166 8 0 4 32 160 72
347 68 323 73 343 109 395 86 127 186 193 291 194 141 2 170 -98 108 -370 -64
-279 -31 -457 100 -545 59 -40 112 -52 200 -47 85 5 127 23 183 76 38 37 77
122 77 168 0 21 -3 23 -19 14 -29 -15 -138 -12 -171 5 -18 9 -34 30 -46 60
-21 56 -16 123 21 280 65 277 36 466 -87 555 -50 36 -98 50 -182 53 -35 1 -63
4 -61 7 2 3 143 102 314 220 l311 215 -155 3 -154 3 -331 -261 c-182 -143
-333 -260 -337 -260 -3 0 -3 15 0 33 8 45 237 1108 243 1130 3 9 2 17 -3 16
-4 -1 -79 -11 -165 -23z"/>
</g>
</svg>
